<svg><defs><font id="AgencyFB-Reg" horiz-adv-x="819"><font-face font-family="Agency FB" font-weight="400" font-stretch="condensed" units-per-em="2048" panose-1="2 11 5 3 2 2 2 2 2 4" ascent="1638" descent="-410" x-height="973" cap-height="1565" bbox="-326 -410 1889 2015" underline-thickness="102" underline-position="-209" unicode-range="U+0020-F002"/><glyph glyph-name=".notdef" horiz-adv-x="1024" d="M128 0v1633h768V0H128zm128 128h512v1377H256V128z"/><glyph glyph-name="glyph1" horiz-adv-x="0"/><glyph glyph-name="glyph2" horiz-adv-x="401"/><glyph glyph-name="space" horiz-adv-x="401"/><glyph glyph-name="exclam" unicode="!" horiz-adv-x="408" d="M281 1565L250 352h-92l-31 1213h154zM279 0H129v176h150V0z"/><glyph glyph-name="quotedbl" unicode="&quot;" horiz-adv-x="629" d="M530 1565l-28-492h-88l-29 492h145zm-286 0l-31-492h-86l-31 492h148z"/><glyph glyph-name="numbersign" unicode="#" horiz-adv-x="1067" d="M1016 1022H821l-84-479h207V428H717L641 0H514l78 428H350L276 0H150l75 428H51v115h195l84 479H123v115h227l76 428h127l-78-428h242l74 428h127l-76-428h174v-115zm-320 0H455l-84-479h239z"/><glyph glyph-name="dollar" unicode="$" horiz-adv-x="850" d="M729 121Q729 8 574 8q-17 0-47.5 1T483 10v-133H362V10q-12 0-42-1t-46-1Q119 8 119 121v387h139V127h104v645l-198 246q-45 56-45 119v307q0 113 155 113 16 0 46-1.5t42-1.5v134h121v-134q13 0 43.5 1.5t47.5 1.5q155 0 155-113v-354H590v348H483V834l201-244q45-55 45-117V121zM362 975v463H258v-330zm228-848v375L483 631V127h107z"/><glyph glyph-name="percent" unicode="%" horiz-adv-x="1372" d="M1157 1556L297 0H182v8l861 1557h114v-9zm127-1454q0-42-28.5-72T1186 0H895q-37 0-66.5 32.5T799 102v591q0 36 30 69.5t66 33.5h291q39 0 68.5-32t29.5-71V102zm-121 10v567H920V112h243zM545 871q0-42-28.5-72T447 769H156q-37 0-66.5 32.5T60 871v591q0 36 30 69.5t66 33.5h291q39 0 68.5-32t29.5-71V871zm-121 10v567H181V881h243z"/><glyph glyph-name="ampersand" unicode="&amp;" horiz-adv-x="891" d="M850 756H735V0H229q-49 0-79.5 31T119 111v532q0 67 51 100l117 76q-55 33-109 66-55 43-55 104v465q0 49 31 80t79 31h396q49 0 80.5-31t31.5-80v-328H602v316H260V971l141-94h449V756zM598 123v633H399l-143-92V123h342z"/><glyph glyph-name="quotesingle" unicode="'" horiz-adv-x="340" d="M244 1565l-31-492h-86l-31 492h148z"/><glyph glyph-name="parenleft" unicode="(" horiz-adv-x="539" d="M473-201H352Q104 202 104 682t248 883h121v-11q-122-221-175-420-54-204-54-452t54-452q53-199 175-420v-11z"/><glyph glyph-name="parenright" unicode=")" horiz-adv-x="539" d="M434 682q0-480-248-883H68v11Q190 31 242 230q55 204 55 452t-55 452q-52 199-174 420v11h118q248-403 248-883z"/><glyph glyph-name="asterisk" unicode="*" horiz-adv-x="813" d="M715 1143l-66-109-207 154 25-260H344l27 260-209-154-64 109 240 102-240 105 64 106 209-151-27 260h123l-25-260 207 151 66-106-240-105z"/><glyph glyph-name="plus" unicode="+" horiz-adv-x="838" d="M769 629H481V346H358v283H70v116h288v283h123V745h288V629z"/><glyph glyph-name="comma" unicode="," horiz-adv-x="340" d="M266 176l-88-287H82l29 287h155z"/><glyph glyph-name="hyphen" unicode="-" horiz-adv-x="604" d="M508 535H96v124h412V535z"/><glyph glyph-name="hyphen" unicode="‐" horiz-adv-x="604" d="M508 535H96v124h412V535z"/><glyph glyph-name="period" unicode="." horiz-adv-x="340" d="M246 0H94v176h152V0z"/><glyph glyph-name="slash" unicode="/" horiz-adv-x="885" d="M840 1556L178 0H45v8l662 1557h133v-9z"/><glyph glyph-name="zero" unicode="0" horiz-adv-x="889" d="M764 111q0-49-32-80T651 0H236q-49 0-80 31t-31 80v1343q0 49 31 80t80 31h415q49 0 81-31t32-80V111zm-139 12v1319H264V123h361z"/><glyph glyph-name="one" unicode="1" horiz-adv-x="416" d="M281 0H141v1085H80v5l88 475h113V0z"/><glyph glyph-name="two" unicode="2" horiz-adv-x="799" d="M707 0H86v74l479 995v373H246v-352H106v364q0 49 31 80t80 31h377q49 0 80-31t31-80v-332q0-60-37-137L254 123h453V0z"/><glyph glyph-name="three" unicode="3" horiz-adv-x="864" d="M750 111q0-49-31-80T639 0H236q-49 0-80 31t-31 80v397h139V123h346v479L334 809v31l274 204v398H266v-352H127v364q0 49 31 80t80 31h399q49 0 80-31t31-80v-381q0-75-60-117L502 825l188-131q60-41 60-119V111z"/><glyph glyph-name="four" unicode="4" horiz-adv-x="784" d="M735 408H616V0H485v408H43v71l379 1086h131v-6L193 526h292v568h131V526h119V408z"/><glyph glyph-name="five" unicode="5" horiz-adv-x="842" d="M727 111q0-49-31-80T616 0H231q-49 0-79.5 31T121 111v397h139V123h328v737H125l18 705h572v-123H279l-17-459h354q49 0 80-31t31-80V111z"/><glyph glyph-name="six" unicode="6" horiz-adv-x="868" d="M745 111q0-49-30.5-80T635 0H236q-49 0-80 31t-31 80v1343q0 49 31 80t80 31h395q49 0 79.5-31t30.5-80v-346H602v334H264V862h371q49 0 79.5-30.5T745 752V111zm-139 12v618H264V123h342z"/><glyph glyph-name="seven" unicode="7" horiz-adv-x="743" d="M692 1493L356 0H219l326 1442H211v-230H72v353h620v-72z"/><glyph glyph-name="eight" unicode="8" horiz-adv-x="883" d="M756 111q0-49-32-80T643 0H231q-49 0-79.5 31T121 111v510q0 67 51 100l152 98-148 92q-51 32-51 101v442q0 49 31 80t80 31h405q49 0 80-31t31-80v-442q0-69-52-101l-147-92 149-98q54-35 54-100V111zM612 993v449H264V993l174-116zm4-870v518L438 758 260 641V123h356z"/><glyph glyph-name="nine" unicode="9" horiz-adv-x="868" d="M739 111q0-49-30.5-80T629 0H238q-49 0-81 31t-32 80v346h139V123h336v579H229q-49 0-79.5 31T119 813v641q0 49 30.5 80t79.5 31h400q49 0 79.5-31t30.5-80V111zM600 823v619H258V823h342z"/><glyph glyph-name="colon" unicode=":" horiz-adv-x="340" d="M246 676H94v176h152V676zm0-676H94v176h152V0z"/><glyph glyph-name="semicolon" unicode=";" horiz-adv-x="340" d="M246 676H94v176h152V676zm6-500l-90-287H66l28 287h158z"/><glyph glyph-name="less" unicode="&lt;" horiz-adv-x="698" d="M584 242h-6L76 618v72l508 379V930L213 655l371-274V242z"/><glyph glyph-name="equal" unicode="=" horiz-adv-x="903" d="M801 756H102v121h699V756zm0-365H102v119h699V391z"/><glyph glyph-name="greater" unicode="&gt;" horiz-adv-x="698" d="M623 618L115 242v139l370 274-370 275v139h8l500-379v-72z"/><glyph glyph-name="question" unicode="?" horiz-adv-x="782" d="M688 1102q0-60-31-107L453 684V352H313v299q0 66 29 109l207 309v373H229v-352H90v364q0 49 32 80t81 31h372q50 0 81.5-31t31.5-80v-352zM459 0H307v176h152V0z"/><glyph glyph-name="at" unicode="@" horiz-adv-x="1155" d="M1030 0H190q-65 0-65 66v1433q0 66 65 66h775q65 0 65-66V412q0-66-65-66H457q-72 0-72 70v368q0 72 72 72h209v279H494V971H393v184q0 72 72 72h229q72 0 72-72V422h188v1073H201V70h829V0zM666 436v330H487V436h179z"/><glyph glyph-name="A" unicode="A" d="M756 0H618l-55 348H252L197 0H63v4l279 1565h137zM545 471l-137 848-138-848h275z"/><glyph glyph-name="B" unicode="B" horiz-adv-x="870" d="M752 111q0-49-31-80T641 0H125v1565h512q49 0 80-31t31-80V989q0-62-56-104l-110-66 118-76q52-32 52-100V111zM608 971v471H264V877h205zm4-848v541l-141 92H264V123h348z"/><glyph glyph-name="C" unicode="C" horiz-adv-x="870" d="M752 111q0-49-32-80T639 0H236q-49 0-80 31t-31 80v1343q0 49 31 80t80 31h403q49 0 81-31t32-80v-364H612v352H264V123h348v385h140V111z"/><glyph glyph-name="D" unicode="D" horiz-adv-x="889" d="M770 283q0-124-81.5-203.5T483 0H125v1565h358q125 0 206-79.5t81-203.5V283zm-139 14v973q0 77-48.5 124.5T457 1442H264V123h185q81 0 131.5 46.5T631 297z"/><glyph glyph-name="E" unicode="E" horiz-adv-x="731" d="M639 0H125v1565h508v-123H264V858h336V733H264V123h375V0z"/><glyph glyph-name="F" unicode="F" horiz-adv-x="696" d="M629 1442H264V848h336V723H264V0H125v1565h504v-123z"/><glyph glyph-name="G" unicode="G" horiz-adv-x="881" d="M758 111q0-49-31-80T647 0H236q-49 0-80 31t-31 80v1343q0 49 31 80t80 31h411q49 0 80-31t31-80v-364H618v352H264V123h354v541H451v120h307V111z"/><glyph glyph-name="H" unicode="H" horiz-adv-x="905" d="M780 0H641v752H264V0H125v1565h139V877h377v688h139V0z"/><glyph glyph-name="I" unicode="I" horiz-adv-x="408" d="M272 0H133v1565h139V0z"/><glyph glyph-name="J" unicode="J" horiz-adv-x="801" d="M676 111q0-49-31-80T565 0H201q-49 0-80 31t-31 80v397h139V123h308v1442h139V111z"/><glyph glyph-name="K" unicode="K" horiz-adv-x="788" d="M778 0H625L264 752V0H125v1565h139V862l328 703h151v-9L389 811z"/><glyph glyph-name="L" unicode="L" horiz-adv-x="690" d="M625 0H125v1565h139V123h361V0z"/><glyph glyph-name="M" unicode="M" horiz-adv-x="1024" d="M899 0H768v991q0 21 14 123L526 147h-28l-256 967q14-103 14-123V0H125v1565h129L508 547q2-8 4-45 0 15 4 45l254 1018h129V0z"/><glyph glyph-name="N" unicode="N" horiz-adv-x="895" d="M770 0h-96L256 1151V0H125v1565h104L639 434v1131h131V0z"/><glyph glyph-name="O" unicode="O" horiz-adv-x="911" d="M786 111q0-49-31.5-80T674 0H236q-49 0-80 31t-31 80v1343q0 49 31 80t80 31h438q49 0 80.5-31t31.5-80V111zm-139 12v1319H264V123h383z"/><glyph glyph-name="P" unicode="P" horiz-adv-x="840" d="M745 733q0-49-31.5-80.5T633 621H264V0H125v1565h508q49 0 80.5-31t31.5-80V733zm-139 12v697H264V745h342z"/><glyph glyph-name="Q" unicode="Q" horiz-adv-x="922" d="M893-2h-12L778 82Q760 0 676 0H236q-49 0-80 31t-31 80v1343q0 49 31 80t80 31h440q49 0 79.5-31t30.5-80V221l107-86V-2zM647 123v61L481 322v137h13l153-127v1110H264V123h383z"/><glyph glyph-name="R" unicode="R" horiz-adv-x="874" d="M791 0H645L354 838l19 28h248v576H264V0H125v1565h524q49 0 80-31t31-80V860q0-113-152-113-15 0-44 1.5t-42 1.5Q657 376 791 0z"/><glyph glyph-name="S" unicode="S" horiz-adv-x="856" d="M735 111q0-49-30.5-80T625 0H231q-49 0-80.5 31T119 111v397h139V123h338v373l-432 522q-45 54-45 119v317q0 49 31.5 80t80.5 31h394q49 0 79.5-31t30.5-80v-364H596v352H258v-330l434-522q43-52 43-117V111z"/><glyph glyph-name="T" unicode="T" horiz-adv-x="702" d="M664 1442H422V0H283v1442H39v123h625v-123z"/><glyph glyph-name="U" unicode="U" horiz-adv-x="899" d="M774 111q0-49-31.5-80T662 0H236q-49 0-80 31t-31 80v1454h139V123h371v1442h139V111z"/><glyph glyph-name="V" unicode="V" horiz-adv-x="799" d="M736 1565L465-4H334L63 1565h138L395 319l6-102q1 35 7 102l194 1246h134z"/><glyph glyph-name="W" unicode="W" horiz-adv-x="1122" d="M1061 1565L848-4H735L565 1176q-1 31-4 92 0-32-4-92L387-4H274L61 1565h138L332 436q1-38 4-112-1 38 4 112l162 1129h119L782 436q2-38 4-112 0 38 5 112l133 1129h137z"/><glyph glyph-name="X" unicode="X" horiz-adv-x="786" d="M743 0H600L391 643 182 0H43v8l279 793Q58 1561 59 1565h146l188-594 195 594h139v-9L467 809Q745 4 743 0z"/><glyph glyph-name="Y" unicode="Y" horiz-adv-x="799" d="M754 1556L564 923q-36-95-95-317V0H330v606q-14 76-43 160-48 144-52 157L45 1556v9h141l215-783 213 783h140v-9z"/><glyph glyph-name="Z" unicode="Z" horiz-adv-x="705" d="M649 0H49v74l440 1368H92v123h557v-72L209 123h440V0z"/><glyph glyph-name="bracketleft" unicode="[" horiz-adv-x="594" d="M506-248H240q-49 0-80 31t-31 80v1591q0 49 31 80t80 31h266v-123H268V-125h238v-123z"/><glyph glyph-name="backslash" unicode="\" horiz-adv-x="885" d="M840 0H707L45 1565h133z"/><glyph glyph-name="bracketright" unicode="]" horiz-adv-x="594" d="M467-137q0-49-32-80t-81-31H88v123h240v1567H88v123h266q49 0 81-31t32-80V-137z"/><glyph glyph-name="asciicircum" unicode="^" d="M723 1012H610l-202 387-203-387H96v8l262 545h105z"/><glyph glyph-name="underscore" unicode="_" horiz-adv-x="739" d="M739-410H0v111h739v-111z"/><glyph glyph-name="grave" unicode="`" d="M627 1059h-92l-246 231v4h188l150-229v-6z"/><glyph glyph-name="a" unicode="a" horiz-adv-x="768" d="M659 0H528v27Q449 16 370 6 272-6 213-6 104-6 104 102v355q0 112 113 112h313v293H244V696H115v164q0 113 112 113h320q112 0 112-113V0zM530 121v344H233V115z"/><glyph glyph-name="b" unicode="b" horiz-adv-x="776" d="M668 209q0-90-59-149.5T461 0H109v1565h133V946l158 20q100 13 157 13 111 0 111-109V209zm-133 20v625l-293-8V117h184q109 0 109 112z"/><glyph glyph-name="c" unicode="c" horiz-adv-x="756" d="M649 113Q649 0 537 0H221Q109 0 109 113v747q0 113 112 113h316q112 0 112-113V666H518v190H242V117h276v217h131V113z"/><glyph glyph-name="d" unicode="d" horiz-adv-x="772" d="M662 0H530v27Q316-6 293-6q-85 0-137 57.5T104 195v569q0 90 59 149.5T311 973h219v592h132V0zM530 121v735H346q-110 0-110-113V223q0-112 110-112 26 0 184 10z"/><glyph glyph-name="e" unicode="e" horiz-adv-x="764" d="M653 113Q653 0 541 0H221Q109 0 109 113v747q0 113 112 113h320q112 0 112-113V510l-45-47H238V111h286v178h129V113zM524 569v293H238V569h286z"/><glyph glyph-name="f" unicode="f" horiz-adv-x="487" d="M477 1448H289V973h166V856H289V0H158v856H45v117h113v479q0 113 112 113h207v-117z"/><glyph glyph-name="g" unicode="g" horiz-adv-x="772" d="M662-256q0-113-113-113H233q-115 0-115 143 0 17 1.5 50.5T121-127h131v-129h278V0H311q-89 0-148 59.5T104 209v569q0 86 52 143.5T293 979q23 0 237-33v27h132V-256zM530 117v735q-158 10-184 10-110 0-110-112V229q0-112 110-112h184z"/><glyph glyph-name="h" unicode="h" horiz-adv-x="774" d="M668 0H535v854l-293-8V0H109v1565h133V946l158 20q100 13 157 13 111 0 111-109V0z"/><glyph glyph-name="i" unicode="i" horiz-adv-x="365" d="M250 1186H115v168h135v-168zM248 0H117v973h131V0z"/><glyph glyph-name="j" unicode="j" horiz-adv-x="365" d="M250 1186H115v168h135v-168zm-2-1442q0-113-113-113H-31v117h148V973h131V-256z"/><glyph glyph-name="k" unicode="k" horiz-adv-x="686" d="M655 0H510L242 496V0H109v1565h133V571l250 402h143v-4L352 539z"/><glyph glyph-name="l" unicode="l" horiz-adv-x="365" d="M248 0H117v1565h131V0z"/><glyph glyph-name="m" unicode="m" horiz-adv-x="1194" d="M1087 0H954v854l-290-8V0H532v854l-290-8V0H109v973h133v-27q78 10 156 21 95 12 157 12 61 0 90-37 84 11 167 23 109 14 165 14 110 0 110-109V0z"/><glyph glyph-name="n" unicode="n" horiz-adv-x="774" d="M668 0H535v854l-293-8V0H109v973h133v-27q78 10 157 21 96 12 158 12 111 0 111-109V0z"/><glyph glyph-name="o" unicode="o" horiz-adv-x="776" d="M668 113Q668 0 555 0H221Q109 0 109 113v747q0 113 112 113h334q113 0 113-113V113zm-133 4v739H242V117h293z"/><glyph glyph-name="p" unicode="p" horiz-adv-x="772" d="M668 209q0-90-59-149.5T461 0H242v-369H109V973h133v-27l158 20q100 13 157 13 111 0 111-109V209zm-133 20v625l-293-8V117h184q109 0 109 112z"/><glyph glyph-name="q" unicode="q" horiz-adv-x="772" d="M662-369H530V0H311q-89 0-148 59.5T104 209v569q0 86 52 143.5T293 979q23 0 237-33v27h132V-369zM530 117v735q-158 10-184 10-110 0-110-112V229q0-112 110-112h184z"/><glyph glyph-name="r" unicode="r" horiz-adv-x="678" d="M618 653H487v201l-245-8V0H109v973h133v-27q66 10 133 21 80 12 133 12 110 0 110-109V653z"/><glyph glyph-name="s" unicode="s" horiz-adv-x="735" d="M633 113Q633 0 520 0H215Q102 0 102 113v221h131V115h269v194L154 594q-50 40-50 104v162q0 113 113 113h301q113 0 113-113V666H502v192H233V688l351-285q49-39 49-106V113z"/><glyph glyph-name="t" unicode="t" horiz-adv-x="520" d="M459 0H270Q158 0 158 113v743H41v117h117v303h131V973h170V856H289V117h170V0z"/><glyph glyph-name="u" unicode="u" horiz-adv-x="774" d="M666 0H535v27Q455 16 376 6 280-6 217-6 109-6 109 102v871h131V119l295 8v846h131V0z"/><glyph glyph-name="v" unicode="v" horiz-adv-x="711" d="M657 973L416-2H295L53 973h137l166-766 168 766h133z"/><glyph glyph-name="w" unicode="w" horiz-adv-x="1034" d="M979 973L778-2H659L516 737 373-2H256L55 973h125l137-750 142 750h116l142-750 137 750h125z"/><glyph glyph-name="x" unicode="x" horiz-adv-x="678" d="M637 0H502L338 385 172 0H41v4l227 496L55 973h135l150-357 154 357h129v-4L410 504z"/><glyph glyph-name="y" unicode="y" horiz-adv-x="711" d="M657 973L423 8l-97-377H195L293 8 53 973h137l166-766 168 766h133z"/><glyph glyph-name="z" unicode="z" horiz-adv-x="655" d="M575 0H63v61l355 793H100v119h475v-62L219 119h356V0z"/><glyph glyph-name="braceleft" unicode="{" horiz-adv-x="698" d="M610-248H436q-89 0-147 58T231-43v563L63 676v29l168 155v500q0 89 58 147t147 58h174v-121q-13 0-46.5 1.5T512 1447q-141 0-141-104V879q0-62-49-110-51-39-101-79 50-39 101-79 49-48 49-109V-27q0-103 141-103 18 0 51.5 1.5T610-127v-121z"/><glyph glyph-name="bar" unicode="|" horiz-adv-x="418" d="M272-342H145v1907h127V-342z"/><glyph glyph-name="braceright" unicode="}" horiz-adv-x="698" d="M635 676L467 520V-43q0-88-58.5-146.5T262-248H88v121q13 0 46.5-1.5T186-130q142 0 142 103v529q0 61 49 109 50 40 100 79-50 40-100 79-49 48-49 110v464q0 104-142 104-18 0-51.5-1.5T88 1444v121h174q88 0 146.5-58.5T467 1360V860l168-155v-29z"/><glyph glyph-name="asciitilde" unicode="~" horiz-adv-x="1034" d="M864 545q0-86-82-86-50 0-104 20L301 623V465H170v209q0 86 82 86 51 0 104-21l377-143v158h131V545z"/><glyph glyph-name="Adieresis" unicode="Ä" d="M756 0H618l-55 348H252L197 0H63v4l279 1565h137zM545 471l-137 848-138-848h275zm67 1182H465v151h147v-151zm-258 0H207v151h147v-151z"/><glyph glyph-name="Aring" unicode="Å" d="M756 0H618l-55 348H252L197 0H63v4l279 1565h137zM545 471l-137 848-138-848h275zm57 1117q0-92-92-92H309q-92 0-92 92v188q0 93 92 93h201q92 0 92-93v-188zm-102 0v188H319v-188h181z"/><glyph glyph-name="Ccedilla" unicode="Ç" horiz-adv-x="870" d="M752 111q0-49-32-80T639 0H236q-49 0-80 31t-31 80v1343q0 49 31 80t80 31h403q49 0 81-31t32-80v-364H612v352H264V123h348v385h140V111zM622-307q0-80-80-80H337q-80 0-80 80v113h105v-103h153v107q-45 22-89 45-44 29-44 80V2h107v-69q45-23 91-46 42-29 42-81v-113z"/><glyph glyph-name="Eacute" unicode="É" horiz-adv-x="731" d="M639 0H125v1565h508v-123H264V858h336V733H264V123h375V0zm-60 1884l-245-231h-93v6l150 229h188v-4z"/><glyph glyph-name="Ntilde" unicode="Ñ" horiz-adv-x="895" d="M770 0h-96L256 1151V0H125v1565h104L639 434v1131h131V0zM659 1724q0-73-74-73-43 0-132 36l-122 54v-88H225v123q0 73 73 73 43 0 132-36l122-54v88h107v-123z"/><glyph glyph-name="Odieresis" unicode="Ö" horiz-adv-x="911" d="M786 111q0-49-31.5-80T674 0H236q-49 0-80 31t-31 80v1343q0 49 31 80t80 31h438q49 0 80.5-31t31.5-80V111zm-139 12v1319H264V123h383zm11 1530H511v151h147v-151zm-258 0H253v151h147v-151z"/><glyph glyph-name="Udieresis" unicode="Ü" horiz-adv-x="899" d="M774 111q0-49-31.5-80T662 0H236q-49 0-80 31t-31 80v1454h139V123h371v1442h139V111zM652 1653H505v151h147v-151zm-258 0H247v151h147v-151z"/><glyph glyph-name="aacute" unicode="á" horiz-adv-x="768" d="M659 0H528v27Q449 16 370 6 272-6 213-6 104-6 104 102v355q0 112 113 112h313v293H244V696H115v164q0 113 112 113h320q112 0 112-113V0zM530 121v344H233V115zm74 1169l-245-231h-93v6l150 229h188v-4z"/><glyph glyph-name="agrave" unicode="à" horiz-adv-x="768" d="M659 0H528v27Q449 16 370 6 272-6 213-6 104-6 104 102v355q0 112 113 112h313v293H244V696H115v164q0 113 112 113h320q112 0 112-113V0zM530 121v344H233V115zm-23 938h-92l-246 231v4h188l150-229v-6z"/><glyph glyph-name="acircumflex" unicode="â" horiz-adv-x="768" d="M659 0H528v27Q449 16 370 6 272-6 213-6 104-6 104 102v355q0 112 113 112h313v293H244V696H115v164q0 113 112 113h320q112 0 112-113V0zM530 121v344H233V115zm93 938h-86l-151 117-152-117h-82v8l197 227h78l196-227v-8z"/><glyph glyph-name="adieresis" unicode="ä" horiz-adv-x="768" d="M659 0H528v27Q449 16 370 6 272-6 213-6 104-6 104 102v355q0 112 113 112h313v293H244V696H115v164q0 113 112 113h320q112 0 112-113V0zM530 121v344H233V115zm60 938H443v151h147v-151zm-258 0H185v151h147v-151z"/><glyph glyph-name="atilde" unicode="ã" horiz-adv-x="768" d="M659 0H528v27Q449 16 370 6 272-6 213-6 104-6 104 102v355q0 112 113 112h313v293H244V696H115v164q0 113 112 113h320q112 0 112-113V0zM530 121v344H233V115zm75 1009q0-73-74-73-43 0-132 36l-122 54v-88H171v123q0 73 73 73 43 0 132-36l122-54v88h107v-123z"/><glyph glyph-name="aring" unicode="å" horiz-adv-x="768" d="M659 0H528v27Q449 16 370 6 272-6 213-6 104-6 104 102v355q0 112 113 112h313v293H244V696H115v164q0 113 112 113h320q112 0 112-113V0zM530 121v344H233V115zm50 1030q0-92-92-92H287q-92 0-92 92v188q0 93 92 93h201q92 0 92-93v-188zm-102 0v188H297v-188h181z"/><glyph glyph-name="ccedilla" unicode="ç" horiz-adv-x="756" d="M649 113Q649 0 537 0H221Q109 0 109 113v747q0 113 112 113h316q112 0 112-113V666H518v190H242V117h276v217h131V113zm-79-422q0-80-80-80H285q-80 0-80 80v113h105v-103h153v107q-45 22-89 45-44 29-44 80V0h107v-69q45-23 91-46 42-29 42-81v-113z"/><glyph glyph-name="eacute" unicode="é" horiz-adv-x="764" d="M653 113Q653 0 541 0H221Q109 0 109 113v747q0 113 112 113h320q112 0 112-113V510l-45-47H238V111h286v178h129V113zM524 569v293H238V569h286zm69 721l-245-231h-93v6l150 229h188v-4z"/><glyph glyph-name="egrave" unicode="è" horiz-adv-x="764" d="M653 113Q653 0 541 0H221Q109 0 109 113v747q0 113 112 113h320q112 0 112-113V510l-45-47H238V111h286v178h129V113zM524 569v293H238V569h286zm-22 490h-92l-246 231v4h188l150-229v-6z"/><glyph glyph-name="ecircumflex" unicode="ê" horiz-adv-x="764" d="M653 113Q653 0 541 0H221Q109 0 109 113v747q0 113 112 113h320q112 0 112-113V510l-45-47H238V111h286v178h129V113zM524 569v293H238V569h286zm93 490h-86l-151 117-152-117h-82v8l197 227h78l196-227v-8z"/><glyph glyph-name="edieresis" unicode="ë" horiz-adv-x="764" d="M653 113Q653 0 541 0H221Q109 0 109 113v747q0 113 112 113h320q112 0 112-113V510l-45-47H238V111h286v178h129V113zM524 569v293H238V569h286zm60 490H437v151h147v-151zm-258 0H179v151h147v-151z"/><glyph glyph-name="iacute" unicode="í" horiz-adv-x="365" d="M248 0H117v973h131V0zm159 1290l-245-231H69v6l150 229h188v-4z"/><glyph glyph-name="igrave" unicode="ì" horiz-adv-x="365" d="M248 0H117v973h131V0zm43 1059h-92l-246 231v4h188l150-229v-6z"/><glyph glyph-name="icircumflex" unicode="î" horiz-adv-x="365" d="M248 0H117v973h131V0zm172 1044h-86l-151 117-152-117h-82v8l197 227h78l196-227v-8z"/><glyph glyph-name="idieresis" unicode="ï" horiz-adv-x="365" d="M248 0H117v973h131V0zm137 1059H238v151h147v-151zm-258 0H-20v151h147v-151z"/><glyph glyph-name="ntilde" unicode="ñ" horiz-adv-x="774" d="M668 0H535v854l-293-8V0H109v973h133v-27q78 10 157 21 96 12 158 12 111 0 111-109V0zm-63 1130q0-73-74-73-43 0-132 36l-122 54v-88H171v123q0 73 73 73 43 0 132-36l122-54v88h107v-123z"/><glyph glyph-name="oacute" unicode="ó" horiz-adv-x="776" d="M668 113Q668 0 555 0H221Q109 0 109 113v747q0 113 112 113h334q113 0 113-113V113zm-133 4v739H242V117h293zm71 1173l-245-231h-93v6l150 229h188v-4z"/><glyph glyph-name="ograve" unicode="ò" horiz-adv-x="776" d="M668 113Q668 0 555 0H221Q109 0 109 113v747q0 113 112 113h334q113 0 113-113V113zm-133 4v739H242V117h293zm-31 942h-92l-246 231v4h188l150-229v-6z"/><glyph glyph-name="ocircumflex" unicode="ô" horiz-adv-x="776" d="M668 113Q668 0 555 0H221Q109 0 109 113v747q0 113 112 113h334q113 0 113-113V113zm-133 4v739H242V117h293zm91 942h-86l-151 117-152-117h-82v8l197 227h78l196-227v-8z"/><glyph glyph-name="odieresis" unicode="ö" horiz-adv-x="776" d="M668 113Q668 0 555 0H221Q109 0 109 113v747q0 113 112 113h334q113 0 113-113V113zm-133 4v739H242V117h293zm56 942H444v151h147v-151zm-258 0H186v151h147v-151z"/><glyph glyph-name="otilde" unicode="õ" horiz-adv-x="776" d="M668 113Q668 0 555 0H221Q109 0 109 113v747q0 113 112 113h334q113 0 113-113V113zm-133 4v739H242V117h293zm71 1013q0-73-74-73-43 0-132 36l-122 54v-88H172v123q0 73 73 73 43 0 132-36l122-54v88h107v-123z"/><glyph glyph-name="uacute" unicode="ú" horiz-adv-x="774" d="M666 0H535v27Q455 16 376 6 280-6 217-6 109-6 109 102v871h131V119l295 8v846h131V0zm-61 1290l-245-231h-93v6l150 229h188v-4z"/><glyph glyph-name="ugrave" unicode="ù" horiz-adv-x="774" d="M666 0H535v27Q455 16 376 6 280-6 217-6 109-6 109 102v871h131V119l295 8v846h131V0zM501 1059h-92l-246 231v4h188l150-229v-6z"/><glyph glyph-name="ucircumflex" unicode="û" horiz-adv-x="774" d="M666 0H535v27Q455 16 376 6 280-6 217-6 109-6 109 102v871h131V119l295 8v846h131V0zm-41 1059h-86l-151 117-152-117h-82v8l197 227h78l196-227v-8z"/><glyph glyph-name="udieresis" unicode="ü" horiz-adv-x="774" d="M666 0H535v27Q455 16 376 6 280-6 217-6 109-6 109 102v871h131V119l295 8v846h131V0zm-76 1059H443v151h147v-151zm-258 0H185v151h147v-151z"/><glyph glyph-name="dagger" unicode="†" horiz-adv-x="899" d="M815 1024H516V0H383v1024H84v117h299v424h133v-424h299v-117z"/><glyph glyph-name="degree" unicode="°" horiz-adv-x="668" d="M575 889q0-103-104-103H197Q92 786 92 889v573q0 103 105 103h274q104 0 104-103V889zm-114-2v577H205V887h256z"/><glyph glyph-name="cent" unicode="¢" horiz-adv-x="756" d="M649 412q0-115-138-115-13 0-39.5 1t-39.5 1V0H326v299q-13 0-40-1t-40-1q-137 0-137 115v747q0 114 137 114h40q27-1 40-1v293h106v-293q13 0 40 1h39q138 0 138-114V965H518v190h-86V416h86v217h131V412zm-323 4v739h-84V416h84z"/><glyph glyph-name="sterling" unicode="£" horiz-adv-x="856" d="M770 0H61v123h115v567H61v121h115v643q0 49 31 80t80 31h358q49 0 81-31t32-80v-364H618v354H313V811h295V690H313V123h457V0z"/><glyph glyph-name="section" unicode="§" horiz-adv-x="854" d="M735 111q0-49-30.5-80T625 0H231q-49 0-80.5 31T119 111v243h137V119h344v241L184 592q-65 36-65 108v154q0 72 63 107l135 73-133 74q-65 36-65 109v237q0 49 31.5 80t80.5 31h394q49 0 79.5-31t30.5-80v-244H600v236H256v-242l414-231q65-37 65-109V711q0-72-63-107l-133-74 131-73q65-37 65-109V111zM608 690v184L428 975 248 874V690l180-100z"/><glyph glyph-name="bullet" unicode="•" horiz-adv-x="864" d="M733 598q0-117-117-117H248q-117 0-117 117v367q0 116 117 116h368q117 0 117-116V598z"/><glyph glyph-name="paragraph" unicode="¶" horiz-adv-x="948" d="M823 0H690v621H514V0H381v621H207q-49 0-80 31.5T96 733v721q0 49 31 80t80 31h616V0zM690 745v697H424V745h266z"/><glyph glyph-name="germandbls" unicode="ß" horiz-adv-x="788" d="M678 109Q678 0 569 0H385v117h162v536L383 805v33l162 149v348q0 113-109 113H242V0H109v1565h360q90 0 148.5-59.5T676 1356v-316q0-79-44-126-57-46-114-93 59-46 117-92 43-44 43-127V109z"/><glyph glyph-name="registered" unicode="®" horiz-adv-x="1155" d="M1030 66q0-66-65-66H190q-65 0-65 66v1433q0 66 65 66h775q65 0 65-66V66zm-76 4v1425H201V70h753zM791 346H686L524 817l21 31h127v287H487V346H387v881h315q70 0 70-72V829q0-51-41-64-17-5-84-5 145-409 144-414z"/><glyph glyph-name="copyright" unicode="©" horiz-adv-x="1155" d="M1030 66q0-66-65-66H190q-65 0-65 66v1433q0 66 65 66h775q65 0 65-66V66zm-76 4v1425H201V70h753zM768 416q0-70-72-70H459q-74 0-74 70v739q0 72 74 72h237q72 0 72-72V944H666v189H487V438h179v207h102V416z"/><glyph glyph-name="trademark" unicode="™" horiz-adv-x="1116" d="M1012 668h-94v549L801 762h-33l-117 455V668h-94v897h90l137-564 142 564h86V668zm-559 807H311V668h-94v807H76v90h377v-90z"/><glyph glyph-name="acute" unicode="´" d="M526 1290l-245-231h-93v6l150 229h188v-4z"/><glyph glyph-name="dieresis" unicode="¨" d="M612 1059H465v151h147v-151zm-258 0H207v151h147v-151z"/><glyph glyph-name="notequal" unicode="≠" horiz-adv-x="903" d="M801 391H454L374 69 257 98l72 293H102v119h257l61 246H102v121h348l79 320 117-29-72-291h227V756H544l-61-246h318V391z"/><glyph glyph-name="AE" unicode="Æ" horiz-adv-x="1137" d="M1044 0H539v348H272L188 0H55v4l387 1561h596v-123H676V858h332V733H676V123h368V0zM539 471v987L299 471h240z"/><glyph glyph-name="Oslash" unicode="Ø" horiz-adv-x="911" d="M786 111q0-49-31.5-80T674 0H236q-49 0-80 31t-31 80v1343q0 49 31 80t80 31h438q49 0 80.5-31t31.5-80V111zm-139 12v1319H264V123h383zm246 1309L18 0v133l875 1432v-133z"/><glyph glyph-name="infinity" unicode="∞" horiz-adv-x="1270" d="M1236 252q0-113-113-113H872q-64 0-138 113l-99 151-98-153q-42-65-63-84-29-26-72-27H149Q36 139 36 252v508q0 113 113 113h253q66-1 138-113l97-151 98 151q73 113 137 113h251q112 0 113-113V252zm-134 4v500H864L703 507l162-251h237zM569 504L404 756H169V256h240z"/><glyph glyph-name="plusminus" unicode="±" horiz-adv-x="838" d="M768 650H479V396H360v254H70v114h290v264h119V764h289V650zm4-460H68v123h704V190z"/><glyph glyph-name="lessequal" unicode="≤" horiz-adv-x="698" d="M584 302h-6L76 648v72l508 349V930L213 685l371-244V302zm0-157H76v119h508V145z"/><glyph glyph-name="greaterequal" unicode="≥" horiz-adv-x="698" d="M604 648L96 302v139l370 244L96 930v139h6l502-349v-72zm-1-503H96v119h507V145z"/><glyph glyph-name="yen" unicode="¥" horiz-adv-x="799" d="M754 1556L565 930h172V813H530l-55-182h262V514H469V0H330v514H61v117h263l-56 182H61v117h172Q44 1561 45 1565h141l215-783 213 783h140v-9z"/><glyph glyph-name="mu" unicode="µ" horiz-adv-x="784" d="M676 0H545v28Q477-1 361-1q-94 0-121 40v-408H109V973h131V253q0-139 138-139 95 0 166 16v843h132V0z"/><glyph glyph-name="mu" unicode="μ" horiz-adv-x="784" d="M676 0H545v28Q477-1 361-1q-94 0-121 40v-408H109V973h131V253q0-139 138-139 95 0 166 16v843h132V0z"/><glyph glyph-name="partialdiff" unicode="∂" horiz-adv-x="868" d="M745 859V111q0-49-31-80T634 0H235q-49 0-80 31t-31 80v641q0 49 31 79.5t80 30.5h357l-327 703h151zM605 123v618H263V123h342z"/><glyph glyph-name="summation" unicode="∑" horiz-adv-x="731" d="M649 0H85v108l382 688-382 644v125h558v-123H223l357-587V736L224 123h425V0z"/><glyph glyph-name="product" unicode="∏" horiz-adv-x="804" d="M764 1442H616V0H481v1442H318V0H183v1442H39v123h725v-123z"/><glyph glyph-name="pi" unicode="π" horiz-adv-x="804" d="M764 770H616V0H481v770H318V0H183v770H39v123h725V770z"/><glyph glyph-name="integral" unicode="∫" horiz-adv-x="487" d="M477 1448H289V-289q0-44-26-75-30-36-82-36l-213-1v117h189l1 1736q0 113 112 113h207v-117z"/><glyph glyph-name="ordfeminine" unicode="ª" horiz-adv-x="670" d="M557 786H442v23q-228-27-243-27-86 0-86 86v287q0 88 88 88h243v225H229v-125H119v132q0 90 90 90h256q92 0 92-90V786zM444 891v262H221V885zm113-332H113v98h444v-98z"/><glyph glyph-name="ordmasculine" unicode="º" horiz-adv-x="674" d="M561 877q0-91-90-91H205q-92 0-92 91v598q0 90 92 90h266q90 0 90-90V877zm-112 10v577H225V887h224zm112-328H113v98h448v-98z"/><glyph glyph-name="Omega" unicode="Ω" horiz-adv-x="1056" d="M1000-1H612v490h184v953l-531-1-1-952h184V-1H59v130h272v237h-95q-49 0-80 31t-31 80v977q0 49 31 80t80 31h585q49 0 81.5-31t32.5-80V477q0-49-31-80t-80-31h-95V129h271V-1z"/><glyph glyph-name="Omega" unicode="Ω" horiz-adv-x="1056" d="M1000-1H612v490h184v953l-531-1-1-952h184V-1H59v130h272v237h-95q-49 0-80 31t-31 80v977q0 49 31 80t80 31h585q49 0 81.5-31t32.5-80V477q0-49-31-80t-80-31h-95V129h271V-1z"/><glyph glyph-name="ae" unicode="æ" horiz-adv-x="1169" d="M1061 113Q1061 0 948 0H637q-54 0-88 29Q238-6 213-6 104-6 104 102v355q0 112 113 112h307v293H244V696H115v164q0 113 112 113h721q113 0 113-113V508l-47-45H651V111h281v178h129V113zM932 567v295H651V567h281zM524 117v348H233V109z"/><glyph glyph-name="oslash" unicode="ø" horiz-adv-x="776" d="M668 113Q668 0 555 0H221Q109 0 109 113v747q0 113 112 113h334q113 0 113-113V113zm-133 4v739H242V117h293zm229 760L18 0v102l746 873v-98z"/><glyph glyph-name="questiondown" unicode="¿" horiz-adv-x="782" d="M475 1389H324v176h151v-176zM692 111q0-49-31.5-80T580 0H207q-49 0-81 31t-32 80v352q0 60 31 106l205 312v331h139V913q0-65-29-108L233 496V123h320v352h139V111z"/><glyph glyph-name="exclamdown" unicode="¡" horiz-adv-x="408" d="M279 1389H129v176h150v-176zM281 0H127l31 1212h92z"/><glyph glyph-name="logicalnot" unicode="¬" horiz-adv-x="942" d="M823 332H699v292H119v124h704V332z"/><glyph glyph-name="radical" unicode="√" horiz-adv-x="887" d="M844 1565L416-2H297L35 541h145l164-377 361 1401h139z"/><glyph glyph-name="florin" unicode="ƒ" horiz-adv-x="625" d="M612 1565l-14-117H408l-66-475h168l-18-117H324L168-256Q152-369 41-369h-166l14 117H37L193 856H80l18 117h113l65 479q16 113 130 113h206z"/><glyph glyph-name="approxequal" unicode="≈" horiz-adv-x="1034" d="M864 804q0-86-82-86-50 0-104 20L301 882V724H170v209q0 86 82 86 51 0 104-21l377-143v158h131V804zm0-395q0-86-82-86-50 0-104 20L301 487V329H170v209q0 86 82 86 51 0 104-21l377-143v158h131V409z"/><glyph glyph-name="Delta" unicode="Δ" d="M775 0H45v122l297 1447h137q10-58 156-763 141-686 140-688V0zM637 132L408 1319 180 132h457z"/><glyph glyph-name="Delta" unicode="∆" d="M775 0H45v122l297 1447h137q10-58 156-763 141-686 140-688V0zM637 132L408 1319 180 132h457z"/><glyph glyph-name="guillemotleft" unicode="«" horiz-adv-x="915" d="M813 156H670L420 535v40l250 379h143v-8L559 555zm-344 0H328L78 535v40l250 379h141v-8L217 555z"/><glyph glyph-name="guillemotright" unicode="»" horiz-adv-x="915" d="M838 535L590 156H446v8l254 391-254 399h144l248-379v-40zm-342 0L246 156H104v8l252 391-252 399h142l250-379v-40z"/><glyph glyph-name="ellipsis" unicode="…" horiz-adv-x="1022" d="M926 0H776v176h150V0zM586 0H436v176h150V0zM246 0H94v176h152V0z"/><glyph glyph-name="nonbreakingspace" horiz-adv-x="201"/><glyph glyph-name="Agrave" unicode="À" d="M756 0H618l-55 348H252L197 0H63v4l279 1565h137zM545 471l-137 848-138-848h275zm-31 1182h-92l-246 231v4h188l150-229v-6z"/><glyph glyph-name="Atilde" unicode="Ã" d="M756 0H618l-55 348H252L197 0H63v4l279 1565h137zM545 471l-137 848-138-848h275zm82 1251q0-73-74-73-43 0-132 36l-122 54v-88H193v123q0 73 73 73 43 0 132-36l122-54v88h107v-123z"/><glyph glyph-name="Otilde" unicode="Õ" horiz-adv-x="911" d="M786 111q0-49-31.5-80T674 0H236q-49 0-80 31t-31 80v1343q0 49 31 80t80 31h438q49 0 80.5-31t31.5-80V111zm-139 12v1319H264V123h383zm26 1601q0-73-74-73-43 0-132 36l-122 54v-88H239v123q0 73 73 73 43 0 132-36l122-54v88h107v-123z"/><glyph glyph-name="OE" unicode="Œ" horiz-adv-x="1208" d="M1116 0H236q-49 0-80 31t-31 80v1343q0 49 31 80t80 31h874v-123H745V858h334V733H745V123h371V0zM606 123v1319H264V123h342z"/><glyph glyph-name="oe" unicode="œ" horiz-adv-x="1174" d="M1065 113Q1065 0 952 0H221Q109 0 109 113v747q0 113 112 113h731q113 0 113-113V510l-47-47H655V111h283v178h127V113zM938 569v293H655V569h283zM530 111v751H240V111h290z"/><glyph glyph-name="endash" unicode="–" horiz-adv-x="870" d="M774 535H96v124h678V535z"/><glyph glyph-name="emdash" unicode="—" horiz-adv-x="1292" d="M1194 535H96v124h1098V535z"/><glyph glyph-name="quotedblleft" unicode="“" horiz-adv-x="629" d="M541 1565l-37-492H356l95 492h90zm-287 0l-37-492H68l96 492h90z"/><glyph glyph-name="quotedblright" unicode="”" horiz-adv-x="629" d="M561 1565l-96-492h-90l37 492h149zm-289 0l-94-492H88l37 492h147z"/><glyph glyph-name="quoteleft" unicode="‘" horiz-adv-x="340" d="M254 1565l-37-492H68l96 492h90z"/><glyph glyph-name="quoteright" unicode="’" horiz-adv-x="340" d="M272 1565l-94-492H88l37 492h147z"/><glyph glyph-name="divide" unicode="÷" horiz-adv-x="838" d="M523 944q0-44-30.5-75.5T418 837q-43 0-73.5 31.5T314 944t30.5 75 73.5 31q44 0 74.5-31t30.5-75zm245-319H70v126h698V625zM523 430q0-44-30.5-75T418 324q-43 0-73.5 31T314 430t30.5 75.5T418 537q44 0 74.5-31.5T523 430z"/><glyph glyph-name="lozenge" unicode="◊" horiz-adv-x="826" d="M798 574L451 66h-72L30 574l349 508h72zm-139 0L414 945 169 574l245-371z"/><glyph glyph-name="ydieresis" unicode="ÿ" horiz-adv-x="711" d="M657 973L423 8l-97-377H195L293 8 53 973h137l166-766 168 766h133zm-98 86H412v151h147v-151zm-258 0H154v151h147v-151z"/><glyph glyph-name="Ydieresis" unicode="Ÿ" horiz-adv-x="799" d="M754 1556L564 923q-36-95-95-317V0H330v606q-14 76-43 160-48 144-52 157L45 1556v9h141l215-783 213 783h140v-9zm-152 97H455v151h147v-151zm-258 0H197v151h147v-151z"/><glyph glyph-name="fraction" unicode="⁄" horiz-adv-x="325" d="M649 1556L-211 0h-115v8l861 1557h114v-9z"/><glyph glyph-name="fraction" unicode="∕" horiz-adv-x="325" d="M649 1556L-211 0h-115v8l861 1557h114v-9z"/><glyph glyph-name="currency" unicode="¤" horiz-adv-x="1221" d="M1095 1099L918 921V526l177-177-118-118-194 194H453L260 231 142 349l177 178v395l-177 177 118 118 194-194h330l193 194zM754 574v302H483V573z"/><glyph glyph-name="guilsinglleft" unicode="‹" horiz-adv-x="573" d="M469 156H328L78 535v40l250 379h141v-8L217 555z"/><glyph glyph-name="guilsinglright" unicode="›" horiz-adv-x="573" d="M496 535L246 156H104v8l252 391-252 399h142l250-379v-40z"/><glyph glyph-name="fi" unicode="" horiz-adv-x="872" d="M756 0H625v856H289V0H158v856H45v117h113v479q0 113 112 113h373q113 0 113-113v-266H625v262H289V973h467V0z"/><glyph glyph-name="fi" unicode="ﬁ" horiz-adv-x="872" d="M756 0H625v856H289V0H158v856H45v117h113v479q0 113 112 113h373q113 0 113-113v-266H625v262H289V973h467V0z"/><glyph glyph-name="fl" unicode="" horiz-adv-x="872" d="M756 0H625v1448H289V973h166V856H289V0H158v856H45v117h113v479q0 113 112 113h486V0z"/><glyph glyph-name="fl" unicode="ﬂ" horiz-adv-x="872" d="M756 0H625v1448H289V973h166V856H289V0H158v856H45v117h113v479q0 113 112 113h486V0z"/><glyph glyph-name="daggerdbl" unicode="‡" horiz-adv-x="899" d="M815 424H514V0H385v424H84v117h301v483H84v117h301v424h129v-424h301v-117H514V541h301V424z"/><glyph glyph-name="periodcentered" unicode="·" horiz-adv-x="340" d="M246 522H94v178h152V522z"/><glyph glyph-name="periodcentered" unicode="∙" horiz-adv-x="340" d="M246 522H94v178h152V522z"/><glyph glyph-name="quotesinglbase" unicode="‚" horiz-adv-x="340" d="M256 252l-96-492H70l36 492h150z"/><glyph glyph-name="quotedblbase" unicode="„" horiz-adv-x="629" d="M561 252l-96-492h-90l37 492h149zm-289 0l-94-492H88l37 492h147z"/><glyph glyph-name="perthousand" unicode="‰" horiz-adv-x="1985" d="M571 871q0-42-28.5-72T473 769H182q-37 0-66.5 32.5T86 871v591q0 36 30 69.5t66 33.5h291q39 0 68.5-32t29.5-71V871zm-121 10v567H207V881h243zm727 679L317 4H202v8l861 1557h114v-9zm112-1458q0-42-28.5-72T1191 0H900q-37 0-66.5 32.5T804 102v591q0 36 30 69.5t66 33.5h291q39 0 68.5-32t29.5-71V102zm-121 10v567H925V112h243zm721-10q0-42-28.5-72T1791 0h-291q-37 0-66.5 32.5T1404 102v591q0 36 30 69.5t66 33.5h291q39 0 68.5-32t29.5-71V102zm-121 10v567h-243V112h243z"/><glyph glyph-name="Acircumflex" unicode="Â" d="M756 0H618l-55 348H252L197 0H63v4l279 1565h137zM545 471l-137 848-138-848h275zm100 1167h-86l-151 117-152-117h-82v8l197 227h78l196-227v-8z"/><glyph glyph-name="Ecircumflex" unicode="Ê" horiz-adv-x="731" d="M639 0H125v1565h508v-123H264V858h336V733H264V123h375V0zm-25 1653h-86l-151 117-152-117h-82v8l197 227h78l196-227v-8z"/><glyph glyph-name="Aacute" unicode="Á" d="M756 0H618l-55 348H252L197 0H63v4l279 1565h137zM545 471l-137 848-138-848h275zm94 1413l-245-231h-93v6l150 229h188v-4z"/><glyph glyph-name="Edieresis" unicode="Ë" horiz-adv-x="731" d="M639 0H125v1565h508v-123H264V858h336V733H264V123h375V0zm-57 1653H435v151h147v-151zm-258 0H177v151h147v-151z"/><glyph glyph-name="Egrave" unicode="È" horiz-adv-x="731" d="M639 0H125v1565h508v-123H264V858h336V733H264V123h375V0zM502 1653h-92l-246 231v4h188l150-229v-6z"/><glyph glyph-name="Iacute" unicode="Í" horiz-adv-x="408" d="M272 0H133v1565h139V0zm160 1884l-245-231H94v6l150 229h188v-4z"/><glyph glyph-name="Icircumflex" unicode="Î" horiz-adv-x="408" d="M272 0H133v1565h139V0zm167 1654h-86l-151 117-152-117h-82v8l197 227h78l196-227v-8z"/><glyph glyph-name="Idieresis" unicode="Ï" horiz-adv-x="408" d="M272 0H133v1565h139V0zm134 1653H259v151h147v-151zm-258 0H1v151h147v-151z"/><glyph glyph-name="Igrave" unicode="Ì" horiz-adv-x="408" d="M272 0H133v1565h139V0zm36 1653h-92l-246 231v4h188l150-229v-6z"/><glyph glyph-name="Oacute" unicode="Ó" horiz-adv-x="911" d="M786 111q0-49-31.5-80T674 0H236q-49 0-80 31t-31 80v1343q0 49 31 80t80 31h438q49 0 80.5-31t31.5-80V111zm-139 12v1319H264V123h383zm31 1761l-245-231h-93v6l150 229h188v-4z"/><glyph glyph-name="Ocircumflex" unicode="Ô" horiz-adv-x="911" d="M786 111q0-49-31.5-80T674 0H236q-49 0-80 31t-31 80v1343q0 49 31 80t80 31h438q49 0 80.5-31t31.5-80V111zm-139 12v1319H264V123h383zm44 1530h-86l-151 117-152-117h-82v8l197 227h78l196-227v-8z"/><glyph glyph-name="apple" horiz-adv-x="1024" d="M128 0v1633h768V0H128zm128 128h512v1377H256V128z"/><glyph glyph-name="Ograve" unicode="Ò" horiz-adv-x="911" d="M786 111q0-49-31.5-80T674 0H236q-49 0-80 31t-31 80v1343q0 49 31 80t80 31h438q49 0 80.5-31t31.5-80V111zm-139 12v1319H264V123h383zm-81 1530h-92l-246 231v4h188l150-229v-6z"/><glyph glyph-name="Uacute" unicode="Ú" horiz-adv-x="899" d="M774 111q0-49-31.5-80T662 0H236q-49 0-80 31t-31 80v1454h139V123h371v1442h139V111zM666 1883l-245-231h-93v6l150 229h188v-4z"/><glyph glyph-name="Ucircumflex" unicode="Û" horiz-adv-x="899" d="M774 111q0-49-31.5-80T662 0H236q-49 0-80 31t-31 80v1454h139V123h371v1442h139V111zm-89 1542h-86l-151 117-152-117h-82v8l197 227h78l196-227v-8z"/><glyph glyph-name="Ugrave" unicode="Ù" horiz-adv-x="899" d="M774 111q0-49-31.5-80T662 0H236q-49 0-80 31t-31 80v1454h139V123h371v1442h139V111zM566 1652h-92l-246 231v4h188l150-229v-6z"/><glyph glyph-name="dotlessi" unicode="ı" horiz-adv-x="365" d="M248 0H117v973h131V0z"/><glyph glyph-name="circumflex" unicode="ˆ" d="M645 1059h-86l-151 117-152-117h-82v8l197 227h78l196-227v-8z"/><glyph glyph-name="tilde" unicode="˜" d="M627 1130q0-73-74-73-43 0-132 36l-122 54v-88H193v123q0 73 73 73 43 0 132-36l122-54v88h107v-123z"/><glyph glyph-name="macron" unicode="¯" d="M631 1090H188v106h443v-106z"/><glyph glyph-name="macron" unicode="ˉ" d="M631 1090H188v106h443v-106z"/><glyph glyph-name="breve" unicode="˘" d="M602 1151q0-92-92-92H309q-92 0-92 92v129h105v-125h176v125h104v-129z"/><glyph glyph-name="dotaccent" unicode="˙" d="M483 1059H336v151h147v-151z"/><glyph glyph-name="ring" unicode="˚" d="M602 1151q0-92-92-92H309q-92 0-92 92v188q0 93 92 93h201q92 0 92-93v-188zm-102 0v188H319v-188h181z"/><glyph glyph-name="cedilla" unicode="¸" d="M592-289q0-80-80-80H307q-80 0-80 80v113h105v-103h153v107q-45 22-89 45-44 29-44 80v67h107v-69q45-23 91-46 42-29 42-81v-113z"/><glyph glyph-name="hungarumlaut" unicode="˝" d="M711 1290l-246-231h-84v6l151 229h179v-4zm-267 0l-245-231h-84v6l151 229h178v-4z"/><glyph glyph-name="ogonek" unicode="˛" d="M578-369H305q-80 0-80 80v117q0 53 39 90L371 20h129v-8L338-150v-124h240v-95z"/><glyph glyph-name="caron" unicode="ˇ" d="M651 1288l-202-229h-78l-203 229v6h86l158-118 157 118h82v-6z"/><glyph glyph-name="Lslash" unicode="Ł" horiz-adv-x="690" d="M625 0H125v1565h139V123h361V0zM492 737L37 401v142l455 335V737z"/><glyph glyph-name="lslash" unicode="ł" horiz-adv-x="365" d="M248 0H117v1565h131V0zm90 635L27 401v142l311 233V635z"/><glyph glyph-name="Scaron" unicode="Š" horiz-adv-x="856" d="M735 111q0-49-30.5-80T625 0H231q-49 0-80.5 31T119 111v397h139V123h338v373l-432 522q-45 54-45 119v317q0 49 31.5 80t80.5 31h394q49 0 79.5-31t30.5-80v-364H596v352H258v-330l434-522q43-52 43-117V111zm-65 1771l-202-229h-78l-203 229v6h86l158-118 157 118h82v-6z"/><glyph glyph-name="scaron" unicode="š" horiz-adv-x="735" d="M633 113Q633 0 520 0H215Q102 0 102 113v221h131V115h269v194L154 594q-50 40-50 104v162q0 113 113 113h301q113 0 113-113V666H502v192H233V688l351-285q49-39 49-106V113zm-23 1175l-202-229h-78l-203 229v6h86l158-118 157 118h82v-6z"/><glyph glyph-name="Zcaron" unicode="Ž" horiz-adv-x="705" d="M649 0H49v74l440 1368H92v123h557v-72L209 123h440V0zm-37 1882l-202-229h-78l-203 229v6h86l158-118 157 118h82v-6z"/><glyph glyph-name="zcaron" unicode="ž" horiz-adv-x="655" d="M575 0H63v61l355 793H100v119h475v-62L219 119h356V0zm8 1288l-202-229h-78l-203 229v6h86l158-118 157 118h82v-6z"/><glyph glyph-name="brokenbar" unicode="¦" horiz-adv-x="397" d="M268 811H129v827h139V811zm0-1220H129v826h139v-826z"/><glyph glyph-name="Eth" unicode="Ð" horiz-adv-x="889" d="M770 283q0-124-81.5-203.5T483 0H125v1565h358q125 0 206-79.5t81-203.5V283zm-139 14v973q0 77-48.5 124.5T457 1442H264V123h185q81 0 131.5 46.5T631 297zM486 758H35v143h451V758z"/><glyph glyph-name="eth" unicode="ð" horiz-adv-x="776" d="M772 1219l-104-29V113Q668 0 555 0H221Q109 0 109 113v747q0 113 112 113h318v180q-128-36-131-35v123l131 37v172H248v-197H119v199q0 113 112 113h324q116 0 116-145 0-18-1.5-54.5T668 1313q101 27 104 26v-120zM539 117v739H242V117h297z"/><glyph glyph-name="Yacute" unicode="Ý" horiz-adv-x="799" d="M754 1556L564 923q-36-95-95-317V0H330v606q-14 76-43 160-48 144-52 157L45 1556v9h141l215-783 213 783h140v-9zm-127 313l-245-231h-93v6l150 229h188v-4z"/><glyph glyph-name="yacute" unicode="ý" horiz-adv-x="711" d="M657 973L423 8l-97-377H195L293 8 53 973h137l166-766 168 766h133zm-66 317l-245-231h-93v6l150 229h188v-4z"/><glyph glyph-name="Thorn" unicode="Þ" horiz-adv-x="840" d="M745 432q0-49-31.5-79.5T633 322H264V0H125v1565h139v-301h369q49 0 80.5-31t31.5-80V432zm-139 12v697H264V444h342z"/><glyph glyph-name="thorn" unicode="þ" horiz-adv-x="772" d="M668 209q0-90-59-149.5T461 0H242v-369H109v1934h133V946l158 20q100 13 157 13 111 0 111-109V209zm-133 20v625l-293-8V117h184q109 0 109 112z"/><glyph glyph-name="minus" unicode="­" horiz-adv-x="942" d="M823 624H119v124h704V624z"/><glyph glyph-name="minus" unicode="−" horiz-adv-x="942" d="M823 624H119v124h704V624z"/><glyph glyph-name="multiply" unicode="×" horiz-adv-x="942" d="M767 883L562 679l204-204-92-92-204 205-204-205-92 91 205 205-204 204 92 91 204-204 204 205z"/><glyph glyph-name="onesuperior" unicode="¹" horiz-adv-x="397" d="M268 769H137v398H84l87 398h97V769z"/><glyph glyph-name="twosuperior" unicode="²" horiz-adv-x="634" d="M571 769H63v78l361 413v191H198v-179H79v162q0 53 35 92t88 39h212q57 0 93-37t36-94v-123q0-83-48-136L235 886h336V769z"/><glyph glyph-name="threesuperior" unicode="³" horiz-adv-x="632" d="M563 888q0-48-29.5-83.5T457 769H190Q71 769 71 890v130h115V878h262v160l-183 113v67l169 99v136H206v-129H85v112q0 129 127 129h223q113 0 113-111v-117q0-56-47-94-48-30-97-59 55-33 109-66 50-39 50-105V888z"/><glyph glyph-name="onehalf" unicode="½" horiz-adv-x="1088" d="M271 769H140v398H87l87 398h97V769zm668 781L79-6H-36v8l861 1557h114v-9zM1075 0H567v78l361 413v191H702V503H583v162q0 53 35 92t88 39h212q57 0 93-37t36-94V542q0-83-48-136L739 117h336V0z"/><glyph glyph-name="onequarter" unicode="¼" horiz-adv-x="1100" d="M271 769H140v398H87l87 398h97V769zm733 787L144 0H29v8l861 1557h114v-9zm91-1363h-81V0H896v193H573v85l192 518h121L696 297h200v275h118V297h81V193z"/><glyph glyph-name="threequarters" unicode="¾" horiz-adv-x="1300" d="M1176 1556L316 0H201v8l861 1557h114v-9zM533 888q0-48-29.5-83.5T427 769H160Q41 769 41 890v130h115V878h262v160l-183 113v67l169 99v136H176v-129H55v112q0 129 127 129h223q113 0 113-111v-117q0-56-47-94-48-30-97-59 55-33 109-66 50-39 50-105V888zm704-695h-81V0h-118v193H715v85l192 518h121L838 297h200v275h118V297h81V193z"/><glyph glyph-name="glyph247" horiz-adv-x="868" d="M504 758H53v143h451V758z"/><glyph glyph-name="glyph248" horiz-adv-x="674" d="M492 737L37 401v142l455 335V737z"/><glyph glyph-name="glyph249" horiz-adv-x="398" d="M348 635L37 401v142l311 233V635z"/><glyph glyph-name="glyph250" horiz-adv-x="913" d="M893 1432L18 0v133l875 1432v-133z"/><glyph glyph-name="glyph251" horiz-adv-x="791" d="M764 877L18 0v102l746 873v-98z"/><glyph glyph-name="glyph252" horiz-adv-x="622" d="M563 962h-81V769H364v193H41v85l192 518h121l-190-499h200v275h118v-275h81V962z"/><glyph glyph-name="glyph253" horiz-adv-x="954" d="M944 1448H756V973h166V856H756V0H625v856H289V0H158v856H45v117h113v479q0 113 112 113h207v-117H289V973h336v479q0 113 112 113h207v-117z"/><glyph glyph-name="glyph254" horiz-adv-x="1339" d="M1223 0h-131v856H756V0H625v856H289V0H158v856H45v117h113v479q0 113 112 113h207v-117H289V973h336v479q0 113 112 113h373q113 0 113-113v-266h-131v262H756V973h467V0z"/><glyph glyph-name="glyph255" horiz-adv-x="1339" d="M1223 0h-131v1448H756V973h166V856H756V0H625v856H289V0H158v856H45v117h113v479q0 113 112 113h207v-117H289V973h336v479q0 113 112 113h486V0z"/><glyph glyph-name="glyph256" horiz-adv-x="1155" d="M1030 66q0-66-65-66H190q-65 0-65 66v1433q0 66 65 66h775q65 0 65-66V66zm-76 4v1425H201V70h753zM768 758q0-72-72-72H494V346H391v881h305q72 0 72-70V758zm-102 20v357H494V778h172z"/><glyph glyph-name="glyph257" horiz-adv-x="987" d="M928 760L733 373 913 0H772L666 231 596 86Q555 0 475 0H233q-49 0-81.5 31.5T119 113v419q0 55 35 103l190 264q-40 85-81 169-62 138-62 189v193q0 50 31.5 82.5T313 1565h349q50 0 81-32t31-83v-209H635v201H338v-230l330-698 116 246h144zM602 373L410 774 256 555V123h223z"/><glyph glyph-name="glyph258" horiz-adv-x="879" d="M754 0H614v702H264V0H125v1454q0 49 31 80t80 31h405q49 0 81-31t32-80V0zM614 825v617H264V825h350z"/><glyph glyph-name="glyph259" horiz-adv-x="788" d="M729 1556L468 865h122q104 0 104-113V0H555v749H338l-25 47 285 769h131v-9zM264 0H125v1565h139V0z"/><glyph glyph-name="glyph260" horiz-adv-x="1229" d="M1104 0H969v1384l-287-288V0H547v1096l-287 288V0H125v1565h133l358-355 355 355h133V0z"/><glyph glyph-name="glyph261" horiz-adv-x="870" d="M752 0H612v664l-141 92H264V0H125v1565h512q49 0 80-31t31-80V989q0-62-56-104l-110-66 118-76q52-32 52-100V0zM608 971v471H264V877h205z"/><glyph glyph-name="glyph262" horiz-adv-x="899" d="M774 0H635v49L292 0q-59-8-83-8-33 0-58.5 24T125 72v1493h139V139l371 37v1389h139V0z"/><glyph glyph-name="glyph263" horiz-adv-x="868" d="M754 615q0-107-78-185L246 0H126v1564h140V203l350 350v1011h138V615z"/><glyph glyph-name="glyph264" horiz-adv-x="1229" d="M1104 0H971L613 354 258 0H125v1565h135V180l287 289v1096h135V469l287-289v1385h135V0z"/><glyph glyph-name="glyph265" horiz-adv-x="870" d="M752 0H613l-1 582-170 118-176-122V0H127v562q0 64 51 100l149 106-140 100q-51 36-51 98v598h139V948l161-114 167 120v610h140V966q0-62-52-98L552 768l148-106q52-36 52-100V0z"/><glyph glyph-name="glyph266" horiz-adv-x="899" d="M774 752q0-114-160-114-18 0-50.5 1.5T521 641V0H378v640q-12 1-45-.5t-51-1.5q-157 0-157 114v813h139V764h371v801h139V752z"/><glyph glyph-name="glyph267" horiz-adv-x="879" d="M754 0H614v702H264V0H125v1454q0 49 31 80t80 31h405q49 0 81-31t32-80V0zM614 825v617H264V825h350zm41 1052l-245-231h-93v6l150 229h188v-4z"/><glyph glyph-name="glyph268" horiz-adv-x="879" d="M754 0H614v702H264V0H125v1454q0 49 31 80t80 31h405q49 0 81-31t32-80V0zM614 825v617H264V825h350zm-61 822h-92l-246 231v4h188l150-229v-6z"/><glyph glyph-name="glyph269" horiz-adv-x="879" d="M754 0H614v702H264V0H125v1454q0 49 31 80t80 31h405q49 0 81-31t32-80V0zM614 825v617H264V825h350zm55 822h-86l-151 117-152-117h-82v8l197 227h78l196-227v-8z"/><glyph glyph-name="glyph270" horiz-adv-x="879" d="M754 0H614v702H264V0H125v1454q0 49 31 80t80 31h405q49 0 81-31t32-80V0zM614 825v617H264V825h350zm28 891q0-73-74-73-43 0-132 36l-122 54v-88H208v123q0 73 73 73 43 0 132-36l122-54v88h107v-123z"/><glyph glyph-name="glyph271" horiz-adv-x="879" d="M754 0H614v702H264V0H125v1454q0 49 31 80t80 31h405q49 0 81-31t32-80V0zM614 825v617H264V825h350zm16 820H483v151h147v-151zm-258 0H225v151h147v-151z"/><glyph glyph-name="glyph272" horiz-adv-x="879" d="M754 0H614v702H264V0H125v1454q0 49 31 80t80 31h405q49 0 81-31t32-80V0zM614 825v617H264V825h350zm12 909q0-92-92-92H333q-92 0-92 92v188q0 93 92 93h201q92 0 92-93v-188zm-102 0v188H343v-188h181z"/><glyph glyph-name="glyph273" horiz-adv-x="899" d="M774 0H635v49L292 0q-59-8-83-8-33 0-58.5 24T125 72v1493h139V139l371 37v1389h139V0zM673 1878l-245-231h-93v6l150 229h188v-4z"/><glyph glyph-name="glyph274" horiz-adv-x="899" d="M774 0H635v49L292 0q-59-8-83-8-33 0-58.5 24T125 72v1493h139V139l371 37v1389h139V0zM577 1647h-92l-246 231v4h188l150-229v-6z"/><glyph glyph-name="glyph275" horiz-adv-x="899" d="M774 0H635v49L292 0q-59-8-83-8-33 0-58.5 24T125 72v1493h139V139l371 37v1389h139V0zm-97 1645h-86l-151 117-152-117h-82v8l197 227h78l196-227v-8z"/><glyph glyph-name="glyph276" horiz-adv-x="899" d="M774 0H635v49L292 0q-59-8-83-8-33 0-58.5 24T125 72v1493h139V139l371 37v1389h139V0zM656 1650H509v151h147v-151zm-258 0H251v151h147v-151z"/><glyph glyph-name="glyph277" horiz-adv-x="899" d="M774 752q0-114-160-114-18 0-50.5 1.5T521 641V0H378v640q-12 1-45-.5t-51-1.5q-157 0-157 114v813h139V764h371v801h139V752zM661 1867l-245-231h-93v6l150 229h188v-4z"/><glyph glyph-name="glyph278" horiz-adv-x="899" d="M774 752q0-114-160-114-18 0-50.5 1.5T521 641V0H378v640q-12 1-45-.5t-51-1.5q-157 0-157 114v813h139V764h371v801h139V752zm-125 895H502v151h147v-151zm-258 0H244v151h147v-151z"/><glyph glyph-name="glyph279" horiz-adv-x="899" d="M125 1565h139v-49l343 48q59 8 83 8 33 0 58.5-23.5T774 1493V0H635v1426l-371-37V0H125v1565z"/><glyph glyph-name="glyph280" horiz-adv-x="899" d="M125 1565h139v-49l343 48q59 8 83 8 33 0 58.5-23.5T774 1493V0H635v1426l-371-37V0H125v1565zm550 150q0-73-74-73-43 0-132 36l-122 54v-88H241v123q0 73 73 73 43 0 132-36l122-54v88h107v-123z"/><glyph glyph-name="glyph281" horiz-adv-x="669" d="M577 871q0-42-28.5-72T479 769H188q-37 0-66.5 32.5T92 871v591q0 36 30 69.5t66 33.5h291q39 0 68.5-32t29.5-71V871zm-121 10v567H213V881h243z"/><glyph glyph-name="glyph282" horiz-adv-x="644" d="M556 882q0-43-22-76-26-37-67-37H171q-33 0-61 33t-28 66v159h119V881h235v278H86l5 406h445v-116H193l-3-170h277q35 0 62-26t27-60V882z"/><glyph glyph-name="glyph283" horiz-adv-x="656" d="M571 880q0-49-31-80t-80-31H203q-49 0-80 31t-31 80v574q0 49 31 80t80 31h253q49 0 79.5-31t30.5-80v-128H450v125H210v-208h250q49 0 80-30.5t31-79.5V880zm-120-1v245H210V879h241z"/><glyph glyph-name="glyph284" horiz-adv-x="591" d="M544 1493L292 754H160l249 696H149v-127H30v242h514v-72z"/><glyph glyph-name="glyph285" horiz-adv-x="668" d="M578 865q0-34-31.5-65T482 769H184q-34 0-64 31t-30 65v180q0 57 42 89 7 6 94 50-89 47-89 48-43 31-43 83v155q0 38 27.5 67t66.5 29h291q34 0 64-31t30-65v-155q0-50-45-83l-88-48q92-48 95-50 43-31 43-89V865zm-116 441l-1 147H208v-148l126-67zm-1-430v179l-128 71-125-66 1-184h252z"/><glyph glyph-name="glyph286" horiz-adv-x="656" d="M564 881q0-49-31-80t-80-31H200q-49 0-80 31t-31 80v128h116V884h241v208H196q-49 0-80 30.5T85 1202v253q0 49 31 80t80 31h257q49 0 80-31t31-80V881zm-118 329v246H205v-246h241z"/><glyph glyph-name="glyph287" horiz-adv-x="669" d="M577 102q0-42-28.5-72T479 0H188q-37 0-66.5 32.5T92 102v591q0 36 30 69.5t66 33.5h291q39 0 68.5-32t29.5-71V102zm-121 10v567H213V112h243z"/><glyph glyph-name="glyph288" horiz-adv-x="397" d="M268 0H137v398H84l87 398h97V0z"/><glyph glyph-name="glyph289" horiz-adv-x="634" d="M571 0H63v78l361 413v191H198V503H79v162q0 53 35 92t88 39h212q57 0 93-37t36-94V542q0-83-48-136L235 117h336V0z"/><glyph glyph-name="glyph290" horiz-adv-x="632" d="M563 119q0-48-29.5-83.5T457 0H190Q71 0 71 121v130h115V109h262v160L265 382v67l169 99v136H206V555H85v112q0 129 127 129h223q113 0 113-111V568q0-56-47-94-48-30-97-59 55-33 109-66 50-39 50-105V119z"/><glyph glyph-name="glyph291" horiz-adv-x="622" d="M563 193h-81V0H364v193H41v85l192 518h121L164 297h200v275h118V297h81V193z"/><glyph glyph-name="glyph292" horiz-adv-x="644" d="M556 113q0-43-22-76-26-37-67-37H171q-33 0-61 33T82 99v159h119V112h235v278H86l5 406h445V680H193l-3-170h277q35 0 62-26t27-60V113z"/><glyph glyph-name="glyph293" horiz-adv-x="656" d="M571 111q0-49-31-80T460 0H203q-49 0-80 31t-31 80v574q0 49 31 80t80 31h253q49 0 79.5-31t30.5-80V557H450v125H210V474h250q49 0 80-30.5t31-79.5V111zm-120-1v245H210V110h241z"/><glyph glyph-name="glyph294" horiz-adv-x="591" d="M544 724L292-15H160l249 696H149V554H30v242h514v-72z"/><glyph glyph-name="glyph295" horiz-adv-x="668" d="M578 96q0-34-31.5-65T482 0H184q-34 0-64 31T90 96v180q0 57 42 89 7 6 94 50-89 47-89 48-43 31-43 83v155q0 38 27.5 67t66.5 29h291q34 0 64-31t30-65V546q0-50-45-83l-88-48q92-48 95-50 43-31 43-89V96zM462 537l-1 147H208V536l126-67zm-1-430v179l-128 71-125-66 1-184h252z"/><glyph glyph-name="glyph296" horiz-adv-x="656" d="M564 112q0-49-31-80T453 1H200q-49 0-80 31t-31 80v128h116V115h241v208H196q-49 0-80 30.5T85 433v253q0 49 31 80t80 31h257q49 0 80-31t31-80V112zM446 441v246H205V441h241z"/><glyph glyph-name="Euro" unicode="€" horiz-adv-x="826" d="M732 111q0-49-32-80T619 0H256q-49 0-80 31t-31 80v480H53v119h92v166H53v121h92v457q0 49 31 80t80 31h363q49 0 81-31t32-80v-264H592v252H284V997h397V876H284V710h397V591H284V123h308v255h140V111z"/></font>
</defs>
</svg>
